<svg width="50" height="42" viewBox="0 0 50 42" fill="none" xmlns="http://www.w3.org/2000/svg">
<path fill-rule="evenodd" clip-rule="evenodd" d="M11.6657 26.667C11.2237 26.667 10.7997 26.8426 10.4872 27.1551C10.1746 27.4677 9.99902 27.8916 9.99902 28.3337C9.99902 28.7757 10.1746 29.1996 10.4872 29.5121C10.7997 29.8247 11.2237 30.0003 11.6657 30.0003H24.999C25.4411 30.0003 25.865 29.8247 26.1775 29.5121C26.4901 29.1996 26.6657 28.7757 26.6657 28.3337C26.6657 27.8916 26.4901 27.4677 26.1775 27.1551C25.865 26.8426 25.4411 26.667 24.999 26.667H11.6657Z" fill="currentColor"/>
<path fill-rule="evenodd" clip-rule="evenodd" d="M14.9997 21.666C14.5576 21.666 14.1337 21.8416 13.8212 22.1541C13.5086 22.4667 13.333 22.8907 13.333 23.3327C13.333 23.7747 13.5086 24.1986 13.8212 24.5112C14.1337 24.8237 14.5576 24.9993 14.9997 24.9993H24.9997C25.4417 24.9993 25.8656 24.8237 26.1782 24.5112C26.4907 24.1986 26.6663 23.7747 26.6663 23.3327C26.6663 22.8907 26.4907 22.4667 26.1782 22.1541C25.8656 21.8416 25.4417 21.666 24.9997 21.666H14.9997Z" fill="currentColor"/>
<path fill-rule="evenodd" clip-rule="evenodd" d="M19.9987 16.6665C19.5567 16.6665 19.1327 16.8421 18.8202 17.1546C18.5076 17.4672 18.332 17.8911 18.332 18.3332C18.332 18.7752 18.5076 19.1991 18.8202 19.5117C19.1327 19.8242 19.5567 19.9998 19.9987 19.9998H24.9987C25.4407 19.9998 25.8646 19.8242 26.1772 19.5117C26.4898 19.1991 26.6654 18.7752 26.6654 18.3332C26.6654 17.8911 26.4898 17.4672 26.1772 17.1546C25.8646 16.8421 25.4407 16.6665 24.9987 16.6665H19.9987Z" fill="currentColor"/>
<path fill-rule="evenodd" clip-rule="evenodd" d="M13.1466 6.67678C12.7709 6.71908 12.4208 6.88781 12.1537 7.15529L9.16544 10.1436L7.84382 8.82196C7.53127 8.50948 7.1074 8.33393 6.66544 8.33393C6.22347 8.33393 5.7996 8.50948 5.48705 8.82196C5.17457 9.13451 4.99902 9.55838 4.99902 10.0003C4.99902 10.4423 5.17457 10.8662 5.48705 11.1787L7.98705 13.6787C8.29962 13.9912 8.72348 14.1667 9.16544 14.1667C9.60739 14.1667 10.0312 13.9912 10.3438 13.6787L14.5105 9.51206C14.823 9.19951 14.9985 8.77564 14.9985 8.33368C14.9985 7.89171 14.823 7.46784 14.5105 7.15529C14.3336 6.97826 14.1192 6.84334 13.8831 6.7605C13.647 6.67766 13.3952 6.64903 13.1466 6.67678Z" fill="currentColor"/>
<path fill-rule="evenodd" clip-rule="evenodd" d="M10 0C4.4969 0 0 4.49692 0 10C0 12.9467 1.29058 15.6044 3.33333 17.4382V36.6667C3.33338 37.1087 3.50899 37.5326 3.82154 37.8451C4.13409 38.1577 4.55799 38.3333 5 38.3333H8.62305C9.31587 40.2673 11.1744 41.6667 13.3333 41.6667C15.4923 41.6667 17.3508 40.2673 18.0436 38.3333H30H33.623C34.3159 40.2673 36.1744 41.6667 38.3333 41.6667C40.4923 41.6667 42.3508 40.2673 43.0436 38.3333H48.3333C48.7753 38.3333 49.1992 38.1577 49.5118 37.8451C49.8243 37.5326 50 37.1087 50 36.6667V25C50.0003 24.6215 49.8717 24.2541 49.6354 23.9583L42.9687 15.625C42.8125 15.4298 42.6143 15.2723 42.3889 15.1641C42.1635 15.0559 41.9167 14.9999 41.6667 15H31.6667V11.6667C31.6666 11.2247 31.491 10.8007 31.1785 10.4882C30.8659 10.1756 30.442 10 30 10H20C20 4.49692 15.5031 0 10 0ZM10 3.33333C13.7016 3.33333 16.6667 6.29837 16.6667 10C16.6667 13.7016 13.7016 16.6667 10 16.6667C8.58738 16.6667 7.2819 16.2346 6.20768 15.4948C6.07892 15.3588 5.92816 15.2454 5.76172 15.1595C4.27591 13.9402 3.33333 12.0871 3.33333 10C3.33333 6.29837 6.29837 3.33333 10 3.33333ZM19.4238 13.3333H28.3333V35H18.0436C17.3508 33.066 15.4923 31.6667 13.3333 31.6667C11.1744 31.6667 9.31587 33.066 8.62305 35H6.66667V19.4238C7.71045 19.7954 8.83225 20 10 20C14.3353 20 18.0442 17.2084 19.4238 13.3333ZM31.6667 18.3333H35V26.6667C35 27.1087 35.1757 27.5326 35.4882 27.8451C35.8008 28.1577 36.2247 28.3333 36.6667 28.3333H46.6667V35H43.0436C42.3508 33.066 40.4923 31.6667 38.3333 31.6667C36.1744 31.6667 34.3159 33.066 33.623 35H31.6667V18.3333ZM38.3333 18.3333H40.8659L46.1979 25H38.3333V18.3333ZM13.3333 35C14.2735 35 15 35.7265 15 36.6667C15 37.6069 14.2735 38.3333 13.3333 38.3333C12.3931 38.3333 11.6667 37.6069 11.6667 36.6667C11.6667 35.7265 12.3931 35 13.3333 35ZM38.3333 35C39.2735 35 40 35.7265 40 36.6667C40 37.6069 39.2735 38.3333 38.3333 38.3333C37.3931 38.3333 36.6667 37.6069 36.6667 36.6667C36.6667 35.7265 37.3931 35 38.3333 35Z" fill="currentColor"/>
</svg>
