<svg width="50" height="27" viewBox="0 0 50 27" fill="none" xmlns="http://www.w3.org/2000/svg">
<path d="M30.3769 0.953906C30.2829 0.403027 29.8056 0 29.2463 0H3.45986C2.71672 0 2.11498 0.602441 2.11498 1.34424C2.11498 2.0874 2.71672 2.68916 3.45986 2.68916H9.73536C10.4785 2.68916 11.0802 3.2917 11.0802 4.03418C11.0802 4.77666 10.4785 5.3791 9.73536 5.3791H1.34488C0.602424 5.3791 0 5.98154 0 6.72403C0 7.46651 0.602424 8.06817 1.34488 8.06817H12.7815C13.4377 8.06817 13.9701 8.60137 13.9701 9.25762C13.9701 9.91387 13.4377 10.4463 12.7815 10.4463H6.70537C5.96223 10.4463 5.36049 11.0488 5.36049 11.7913C5.36049 12.5337 5.96223 13.1362 6.70537 13.1362H11.1835C11.8403 13.1362 12.3728 13.6687 12.3728 14.3249C12.3728 14.9811 11.8403 15.5136 11.1835 15.5136H5.00132C4.25817 15.5136 3.65643 16.116 3.65643 16.8585C3.65643 17.601 4.25817 18.2034 5.00132 18.2034H13.4985L14.0344 21.2349H17.1125C16.9314 21.6747 16.8282 22.1549 16.8282 22.6605C16.8282 24.7352 18.5096 26.4167 20.5843 26.4167C22.6582 26.4167 24.3397 24.7352 24.3397 22.6605C24.3397 22.1549 24.2365 21.6747 24.0554 21.2349H33.8247L30.3769 0.953906ZM22.2007 22.6604C22.2007 23.5535 21.4774 24.2769 20.5843 24.2769C19.6905 24.2769 18.9671 23.5535 18.9671 22.6604C18.9671 22.0389 19.3213 21.5057 19.8354 21.2348H21.3324C21.8464 21.5057 22.2007 22.0388 22.2007 22.6604Z" fill="currentColor"/>
<path d="M49.9608 18.8794L48.418 11.268L42.7845 2.6001H32.5273L35.7044 21.2348H39.4562C39.276 21.6746 39.1727 22.1548 39.1727 22.6604C39.1727 24.7351 40.8541 26.4166 42.928 26.4166C45.0028 26.4166 46.6842 24.7351 46.6842 22.6604C46.6842 22.1548 46.5809 21.6746 46.4 21.2348H48.0348C48.6245 21.2348 49.1831 20.9703 49.5564 20.5135C49.9291 20.0575 50.0782 19.4571 49.9608 18.8794ZM38.3333 6.06787H40.903L44.239 11.1994H39.2087L38.3333 6.06787ZM44.5452 22.6604C44.5452 23.5535 43.8218 24.2769 42.928 24.2769C42.0357 24.2769 41.3117 23.5535 41.3117 22.6604C41.3117 22.0389 41.6666 21.5057 42.18 21.2348H43.6769C44.191 21.5057 44.5452 22.0388 44.5452 22.6604Z" fill="currentColor"/>
</svg>
