<svg width="34" height="32" viewBox="0 0 34 32" fill="none" xmlns="http://www.w3.org/2000/svg">
<rect width="34" height="32" rx="1" fill="white"/>
<path d="M11.1897 16.5814H7.95173V14.1574H11.1897C11.631 14.1574 11.9887 14.0828 12.263 13.9337C12.5373 13.7847 12.7371 13.5789 12.8623 13.3166C12.9935 13.0482 13.0591 12.7471 13.0591 12.4132C13.0591 12.0554 12.9935 11.7244 12.8623 11.4203C12.7371 11.1162 12.5373 10.8717 12.263 10.6868C11.9887 10.496 11.631 10.4006 11.1897 10.4006H9.13242V21H5.99285V7.97662H11.1897C12.2332 7.97662 13.1307 8.16744 13.882 8.54907C14.6393 8.93071 15.2207 9.45546 15.6262 10.1233C16.0317 10.7852 16.2345 11.5425 16.2345 12.3953C16.2345 13.2361 16.0317 13.9695 15.6262 14.5956C15.2207 15.2218 14.6393 15.7107 13.882 16.0626C13.1307 16.4084 12.2332 16.5814 11.1897 16.5814ZM25.3311 16.5903H28.4618C28.42 17.4967 28.1755 18.2957 27.7283 18.9875C27.2811 19.6792 26.6609 20.2188 25.8678 20.6064C25.0807 20.9881 24.1505 21.1789 23.0771 21.1789C22.2065 21.1789 21.4283 21.0328 20.7426 20.7406C20.0628 20.4484 19.4843 20.028 19.0073 19.4794C18.5362 18.9308 18.1754 18.2659 17.925 17.4848C17.6805 16.7036 17.5583 15.824 17.5583 14.8461V14.1395C17.5583 13.1615 17.6865 12.282 17.9429 11.5008C18.2053 10.7137 18.575 10.0458 19.052 9.49721C19.535 8.94264 20.1134 8.51926 20.7873 8.22707C21.4611 7.93488 22.2095 7.78878 23.0324 7.78878C24.1654 7.78878 25.1224 7.99153 25.9036 8.39702C26.6848 8.80251 27.29 9.36005 27.7194 10.0697C28.1487 10.7733 28.4021 11.5753 28.4797 12.4758H25.349C25.3371 11.9868 25.2536 11.5783 25.0986 11.2504C24.9435 10.9164 24.6991 10.666 24.3651 10.499C24.0312 10.332 23.5869 10.2486 23.0324 10.2486C22.6448 10.2486 22.3079 10.3201 22.0216 10.4632C21.7354 10.6063 21.4969 10.8329 21.3061 11.143C21.1152 11.4531 20.9721 11.8556 20.8767 12.3505C20.7873 12.8395 20.7426 13.4299 20.7426 14.1216V14.8461C20.7426 15.5378 20.7843 16.1282 20.8678 16.6171C20.9513 17.1061 21.0854 17.5056 21.2703 17.8157C21.4551 18.1258 21.6937 18.3554 21.9859 18.5044C22.284 18.6476 22.6478 18.7191 23.0771 18.7191C23.5541 18.7191 23.9567 18.6446 24.2846 18.4955C24.6126 18.3405 24.866 18.1079 25.0449 17.7978C25.2238 17.4818 25.3192 17.0793 25.3311 16.5903Z" fill="black"/>
<path d="M5.76367 23.6777L25.6892 23.6777L24.8801 22.8672L5.76367 22.8672V23.6777Z" fill="black"/>
<path d="M26.0283 23.6777H26.8389L26.0283 22.8672H25.2178L26.0283 23.6777Z" fill="black"/>
<path d="M27.1084 23.6777H27.919L27.1084 22.8672H26.2979L27.1084 23.6777Z" fill="black"/>
<path d="M28.1895 23.6777H29L28.1895 22.8672H27.3789L28.1895 23.6777Z" fill="black"/>
</svg>
