<svg width="40" height="50" viewBox="0 0 40 50" fill="none" xmlns="http://www.w3.org/2000/svg">
<path d="M19.8056 39.3876C27.7443 39.3876 34.1933 32.9488 34.1933 24.9998C34.1933 17.061 27.7545 10.6121 19.8056 10.6121C15.6628 10.6121 11.9281 12.3672 9.3057 15.1631C6.89755 17.7345 5.41797 21.1937 5.41797 24.9896C5.41797 32.9488 11.8669 39.3876 19.8056 39.3876ZM14.7852 30.6937C14.9179 30.2243 15.0403 29.7447 15.1934 29.2855C15.3669 28.7447 15.5097 28.6733 16.0097 28.9386C16.8669 29.3876 17.7648 29.6325 18.7138 29.7549C19.326 29.8263 19.9281 29.7651 20.4893 29.5202C21.5505 29.061 21.7138 27.8365 20.8158 27.0916C20.5097 26.8365 20.1628 26.6529 19.8056 26.4998C18.8771 26.0916 17.9077 25.7855 17.0403 25.2549C15.622 24.408 14.7138 23.2345 14.8261 21.51C14.9485 19.5508 16.0505 18.3365 17.8465 17.6835C18.5811 17.4182 18.5913 17.4284 18.5913 16.6529C18.5913 16.3876 18.5913 16.1325 18.5913 15.8672C18.6015 15.2855 18.7036 15.1835 19.2852 15.1631C19.4689 15.1529 19.6424 15.1631 19.826 15.1631C21.0607 15.1631 21.0607 15.1631 21.0709 16.3978C21.0709 17.2753 21.0709 17.2753 21.9485 17.408C22.6117 17.51 23.2546 17.7039 23.8668 17.9794C24.2035 18.1325 24.3362 18.3672 24.2342 18.7243C24.0811 19.2549 23.9382 19.7957 23.7648 20.3263C23.6015 20.8263 23.4485 20.8978 22.9689 20.6631C21.9995 20.1937 20.9893 19.9998 19.9281 20.061C19.6526 20.0712 19.3771 20.1121 19.1117 20.2243C18.1934 20.6223 18.0403 21.6427 18.826 22.2753C19.224 22.5916 19.673 22.8263 20.1424 23.0202C20.9587 23.357 21.775 23.6835 22.5505 24.1121C25.0199 25.4794 25.6831 28.5712 23.9484 30.6835C23.3158 31.4488 22.4995 31.959 21.5505 32.2243C21.1321 32.3365 20.9485 32.561 20.9689 32.9896C20.9893 33.4182 20.9689 33.8365 20.9689 34.2651C20.9689 34.6427 20.775 34.8467 20.3975 34.8569C19.9383 34.8672 19.4791 34.8672 19.0301 34.8569C18.6322 34.8467 18.4383 34.6223 18.4383 34.2345C18.4383 33.9284 18.4281 33.612 18.4281 33.3059C18.4179 32.6223 18.3975 32.5916 17.7444 32.4896C16.8975 32.3569 16.071 32.1631 15.3057 31.7855C14.673 31.4794 14.6118 31.3263 14.7852 30.6937Z" fill="currentColor"/>
<path d="M35.3875 40.592C27.0814 48.8981 13.7448 49.1736 5.102 41.4389H7.8775V38.4797H2.0408H1.96937H0V40.4797V40.5206V46.3573H2.95916V43.4899C7.71423 47.8267 13.755 50.0001 19.7958 50.0001C26.2039 50.0001 32.6018 47.5614 37.4793 42.6838L38.5303 41.6328L36.4385 39.541L35.3875 40.592Z" fill="currentColor"/>
<path d="M36.6528 3.64286V6.5102C31.8977 2.17347 25.8569 0 19.8162 0C13.408 0 7.01012 2.43877 2.13261 7.31632L1.0918 8.35714L3.18362 10.449L4.23463 9.39796C12.5407 1.09184 25.8773 0.816326 34.5201 8.55102H31.7446V11.5102H37.5813H37.6528H39.6221V9.5102V9.46938V3.64286H36.6528Z" fill="currentColor"/>
</svg>
