<svg width="50" height="50" viewBox="0 0 50 50" fill="none" xmlns="http://www.w3.org/2000/svg">
<path d="M26.4584 5.72849C26.2589 5.53895 26.0221 5.39309 25.7631 5.30022C25.5041 5.20735 25.2285 5.16951 24.9541 5.18911C24.6796 5.20872 24.4123 5.28534 24.1691 5.41408C23.9259 5.54282 23.7122 5.72086 23.5417 5.93682C23.2687 6.24717 23.0941 6.63173 23.0402 7.04158C22.9864 7.45143 23.0556 7.86804 23.2393 8.2384C23.4229 8.60876 23.7125 8.91612 24.0713 9.12138C24.4301 9.32664 24.8419 9.42052 25.2542 9.39107C25.6666 9.36162 26.0608 9.21017 26.3868 8.95599C26.7128 8.70182 26.9558 8.35641 27.0849 7.96371C27.214 7.57101 27.2234 7.14879 27.1118 6.75075C27.0003 6.35272 26.7728 5.99687 26.4584 5.72849Z" fill="currentColor"/>
<path d="M32.8111 8.74951C32.4114 9.20576 32.2089 9.80185 32.2479 10.4071C32.287 11.0124 32.5644 11.5776 33.0194 11.9787C33.2383 12.2502 33.5139 12.4706 33.8269 12.6246C34.1398 12.7785 34.4826 12.8623 34.8313 12.87C35.18 12.8777 35.5261 12.8093 35.8456 12.6693C36.1651 12.5294 36.4502 12.3214 36.6809 12.0599C36.9117 11.7984 37.0825 11.4896 37.1816 11.1552C37.2806 10.8208 37.3055 10.4688 37.2544 10.1238C37.2033 9.7788 37.0775 9.4491 36.8858 9.15776C36.6941 8.86641 36.4411 8.62043 36.1444 8.43701C35.9096 8.22872 35.6344 8.07091 35.336 7.97335C35.0377 7.87579 34.7225 7.84057 34.4099 7.86987C34.0974 7.89917 33.7942 7.99237 33.5192 8.14368C33.2441 8.295 33.0031 8.5012 32.8111 8.74951Z" fill="currentColor"/>
<path d="M43.6458 20.0002C43.9935 19.5736 44.2085 19.0544 44.264 18.5069C44.3195 17.9593 44.2132 17.4075 43.9581 16.9199C43.7031 16.4322 43.3106 16.03 42.8292 15.7632C42.3479 15.4964 41.7988 15.3767 41.2501 15.4189C40.7014 15.4611 40.1771 15.6634 39.7422 16.0007C39.3073 16.338 38.9809 16.7954 38.8035 17.3164C38.6261 17.8373 38.6054 18.3989 38.744 18.9315C38.8826 19.4641 39.1744 19.9443 39.5833 20.3127C39.8664 20.5677 40.1983 20.7626 40.559 20.8855C40.9197 21.0083 41.3016 21.0566 41.6815 21.0274C42.0614 20.9981 42.4315 20.892 42.7691 20.7154C43.1068 20.5389 43.405 20.2955 43.6458 20.0002Z" fill="currentColor"/>
<path d="M43.7496 28.7501C43.3987 28.3738 42.9722 28.0761 42.498 27.8765C42.0238 27.6768 41.5128 27.5798 40.9984 27.5918C40.4841 27.6038 39.9781 27.7245 39.5137 27.946C39.0494 28.1675 38.6371 28.4848 38.3041 28.877C37.9711 29.2691 37.7249 29.7274 37.5817 30.2215C37.4384 30.7157 37.4014 31.2345 37.473 31.744C37.5446 32.2535 37.7232 32.742 37.9971 33.1776C38.271 33.6131 38.6339 33.9857 39.0621 34.2709C39.8059 34.7664 40.7057 34.9714 41.5907 34.847C42.4757 34.7227 43.2841 34.2776 43.8625 33.5964C44.4409 32.9151 44.749 32.0452 44.7282 31.1517C44.7074 30.2583 44.3591 29.4037 43.7496 28.7501Z" fill="currentColor"/>
<path d="M27.1862 38.6462C26.5778 39.3495 26.1925 40.2178 26.079 41.1407C25.9655 42.0637 26.1291 42.9995 26.5489 43.8292C26.9687 44.6588 27.6259 45.3449 28.4367 45.8001C29.2475 46.2554 30.1754 46.4591 31.1023 46.3856C32.0293 46.312 32.9134 45.9644 33.6422 45.387C34.3711 44.8096 34.9117 44.0284 35.1954 43.1429C35.4791 42.2574 35.4931 41.3075 35.2354 40.414C34.9778 39.5206 34.4603 38.7239 33.7487 38.1254C33.2878 37.7196 32.7501 37.4106 32.1675 37.2166C31.5849 37.0226 30.9692 36.9477 30.3571 36.9963C29.745 37.0449 29.1489 37.216 28.6042 37.4994C28.0594 37.7828 27.5772 38.1728 27.1862 38.6462Z" fill="currentColor"/>
<path d="M10.3109 35.7288C9.41657 36.7863 8.97053 38.1512 9.06782 39.5326C9.16511 40.9141 9.79803 42.203 10.8317 43.1247C11.6117 43.7931 12.5719 44.2159 13.5916 44.34C14.6112 44.464 15.6448 44.2838 16.5623 43.822C17.4799 43.3602 18.2403 42.6374 18.7481 41.7445C19.2559 40.8516 19.4884 39.8285 19.4162 38.8039C19.344 37.7792 18.9705 36.7988 18.3426 35.9859C17.7147 35.173 16.8604 34.5639 15.8872 34.2352C14.914 33.9066 13.8654 33.873 12.8732 34.1388C11.881 34.4045 10.9895 34.9577 10.3109 35.7288Z" fill="currentColor"/>
<path d="M8.05111 28.7949C11.2152 28.5418 13.5751 25.7716 13.3219 22.6074C13.0688 19.4433 10.2986 17.0835 7.13444 17.3366C3.97031 17.5897 1.61048 20.36 1.86361 23.5241C2.11674 26.6882 4.88698 29.0481 8.05111 28.7949Z" fill="currentColor"/>
</svg>
