<svg width="50" height="33" viewBox="0 0 50 33" fill="none" xmlns="http://www.w3.org/2000/svg">
<path d="M9.24785 0V12.3923H3.87852C1.73994 12.3923 0 14.1321 0 16.2706V28.4589C0 30.5975 1.73994 32.3374 3.87852 32.3374H26.3763C28.5148 32.3374 30.2548 30.5976 30.2548 28.4589V22.7563H50V0H9.24785ZM46.7392 3.26084V5.95029C45.5024 5.48193 44.518 4.49746 44.0496 3.26084H46.7392ZM12.5087 3.26084H15.1982C14.7299 4.49756 13.7454 5.48203 12.5087 5.95029V3.26084ZM26.9937 28.4589C26.9937 28.7994 26.7166 29.0765 26.3762 29.0765H3.87852C3.53799 29.0765 3.26094 28.7994 3.26094 28.4589V21.3606H26.9937L26.9937 28.4589ZM26.9938 18.0998H3.26084V16.2707C3.26084 15.9302 3.53789 15.6531 3.87842 15.6531H26.3762C26.7167 15.6531 26.9937 15.9302 26.9937 16.2707V18.0998H26.9938ZM26.3762 12.3924H24.7043C24.518 12.0633 24.4226 11.724 24.4226 11.3781C24.4226 9.62178 26.8045 8.13799 29.6238 8.13799C32.4432 8.13799 34.8251 9.62168 34.8251 11.3781C34.8251 13.0807 32.587 14.5269 29.8819 14.614C29.2596 13.3021 27.9223 12.3924 26.3762 12.3924ZM46.7392 19.4954H44.0496C44.518 18.2587 45.5024 17.2741 46.7392 16.8059V19.4954ZM46.7393 13.4175C43.7009 14.0595 41.3033 16.457 40.6613 19.4954H30.2547V17.8598H30.2546C32.1816 17.7522 33.99 17.1558 35.4012 16.1497C37.1075 14.9333 38.086 13.194 38.086 11.3782C38.086 9.5624 37.1074 7.82314 35.4012 6.60674C33.8368 5.4915 31.7851 4.87734 29.6239 4.87734C27.4628 4.87734 25.411 5.4915 23.8467 6.60674C22.1403 7.82314 21.1618 9.5624 21.1618 11.3782C21.1618 11.7209 21.1957 12.0597 21.2622 12.3924H12.5087V9.33877C15.5471 8.69678 17.9446 6.29922 18.5866 3.26094H40.6613C41.3033 6.29922 43.7009 8.69678 46.7393 9.33877V13.4175Z" fill="currentColor"/>
<path d="M10.8784 23.6138H6.21289V26.8746H10.8784V23.6138Z" fill="currentColor"/>
</svg>
