<svg width="32" height="31" viewBox="0 0 32 31" fill="none" xmlns="http://www.w3.org/2000/svg">
<rect width="32" height="30.1176" rx="0.941176" fill="white"/>
<path d="M10.5316 15.6059H7.48415V13.3245H10.5316C10.947 13.3245 11.2837 13.2544 11.5419 13.1141C11.8 12.9737 11.988 12.7801 12.1059 12.5332C12.2294 12.2806 12.2911 11.9972 12.2911 11.6829C12.2911 11.3462 12.2294 11.0347 12.1059 10.7485C11.988 10.4622 11.8 10.2321 11.5419 10.0581C11.2837 9.87855 10.947 9.78875 10.5316 9.78875H8.59539V19.7646H5.64051V7.50735H10.5316C11.5138 7.50735 12.3584 7.68694 13.0656 8.04613C13.7784 8.40532 14.3256 8.8992 14.7072 9.52778C15.0888 10.1507 15.2797 10.8635 15.2797 11.6661C15.2797 12.4574 15.0888 13.1477 14.7072 13.737C14.3256 14.3263 13.7784 14.7865 13.0656 15.1176C12.3584 15.4432 11.5138 15.6059 10.5316 15.6059ZM23.8413 15.6143H26.7877C26.7484 16.4674 26.5183 17.2195 26.0974 17.8705C25.6765 18.5215 25.0928 19.0294 24.3464 19.3942C23.6055 19.7534 22.73 19.933 21.7198 19.933C20.9004 19.933 20.168 19.7955 19.5226 19.5205C18.8828 19.2455 18.3384 18.8498 17.8894 18.3335C17.446 17.8172 17.1065 17.1914 16.8708 16.4562C16.6406 15.721 16.5256 14.8932 16.5256 13.9727V13.3077C16.5256 12.3873 16.6463 11.5594 16.8876 10.8242C17.1345 10.0834 17.4825 9.45482 17.9315 8.93849C18.3861 8.41654 18.9305 8.01807 19.5647 7.74306C20.1989 7.46806 20.9032 7.33056 21.6777 7.33056C22.744 7.33056 23.6448 7.52138 24.38 7.90302C25.1152 8.28465 25.6849 8.8094 26.089 9.47727C26.4931 10.1395 26.7316 10.8944 26.8046 11.7418H23.8581C23.8469 11.2816 23.7683 10.8972 23.6224 10.5885C23.4765 10.2742 23.2463 10.0385 22.9321 9.88136C22.6178 9.72421 22.1996 9.64564 21.6777 9.64564C21.3129 9.64564 20.9958 9.71299 20.7264 9.84768C20.457 9.98238 20.2325 10.1956 20.0529 10.4875C19.8733 10.7793 19.7386 11.1582 19.6489 11.624C19.5647 12.0842 19.5226 12.6398 19.5226 13.2908V13.9727C19.5226 14.6238 19.5619 15.1794 19.6404 15.6396C19.719 16.0998 19.8453 16.4758 20.0193 16.7677C20.1932 17.0595 20.4177 17.2756 20.6927 17.4159C20.9734 17.5506 21.3157 17.6179 21.7198 17.6179C22.1688 17.6179 22.5476 17.5478 22.8563 17.4075C23.165 17.2616 23.4035 17.0427 23.5719 16.7508C23.7402 16.4534 23.83 16.0745 23.8413 15.6143Z" fill="black"/>
<path d="M5.4248 22.2849L24.1783 22.2849L23.4167 21.522L5.4248 21.522V22.2849Z" fill="black"/>
<path d="M24.4973 22.2849H25.2602L24.4973 21.522H23.7344L24.4973 22.2849Z" fill="black"/>
<path d="M25.5139 22.2849H26.2768L25.5139 21.522H24.751L25.5139 22.2849Z" fill="black"/>
<path d="M26.5314 22.2849H27.2943L26.5314 21.522H25.7686L26.5314 22.2849Z" fill="black"/>
</svg>
